<?xml version="1.0" encoding="UTF-8" standalone="no"?>
<!DOCTYPE svg PUBLIC "-//W3C//DTD SVG 1.1//EN"
 "http://www.w3.org/Graphics/SVG/1.1/DTD/svg11.dtd">
<!-- Generated by graphviz version 15.0.0 (20260523.1842)
 -->
<!-- Title: Truss — Target State: Request / Data Flow Pages: 1 -->
<svg width="1194pt" height="1182pt"
 viewBox="0.00 0.00 1194.00 1182.00" xmlns="http://www.w3.org/2000/svg" xmlns:xlink="http://www.w3.org/1999/xlink">
<g id="graph0" class="graph" transform="scale(1 1) rotate(0) translate(54 1128)">
<title>Truss — Target State: Request / Data Flow</title>
<polygon fill="#ffffff" stroke="none" points="-54,54 -54,-1128 1140,-1128 1140,54 -54,54"/>
<text xml:space="preserve" text-anchor="middle" x="543" y="-5.15" font-family="Helvetica,sans-Serif" font-size="13.00" fill="#2d3436">Truss — Target State: Request / Data Flow</text>
<g id="clust1" class="cluster">
<title>cluster_Vercel Edge Network</title>
<path fill="#f5f5f5" stroke="#aeb6be" stroke-width="2" d="M332,-325.1C332,-325.1 436,-325.1 436,-325.1 442,-325.1 448,-331.1 448,-337.1 448,-337.1 448,-825.65 448,-825.65 448,-831.65 442,-837.65 436,-837.65 436,-837.65 332,-837.65 332,-837.65 326,-837.65 320,-831.65 320,-825.65 320,-825.65 320,-337.1 320,-337.1 320,-331.1 326,-325.1 332,-325.1"/>
<text xml:space="preserve" text-anchor="middle" x="383.88" y="-822.25" font-family="Sans-Serif" font-size="12.00" fill="#333333">Vercel Edge Network</text>
</g>
<g id="clust2" class="cluster">
<title>cluster_AWS (eu&#45;west&#45;1)</title>
<path fill="#fff8f0" stroke="#aeb6be" stroke-width="2" d="M338,-29.5C338,-29.5 1066,-29.5 1066,-29.5 1072,-29.5 1078,-35.5 1078,-41.5 1078,-41.5 1078,-256.6 1078,-256.6 1078,-262.6 1072,-268.6 1066,-268.6 1066,-268.6 338,-268.6 338,-268.6 332,-268.6 326,-262.6 326,-256.6 326,-256.6 326,-41.5 326,-41.5 326,-35.5 332,-29.5 338,-29.5"/>
<text xml:space="preserve" text-anchor="middle" x="379" y="-253.2" font-family="Sans-Serif" font-size="12.00" fill="#333333">AWS (eu&#45;west&#45;1)</text>
</g>
<g id="clust3" class="cluster">
<title>cluster_Clip selection pipeline</title>
<polygon fill="#f9f9f9" stroke="#aeb6be" stroke-width="2" stroke-dasharray="5,2" points="475,-37.5 475,-239.85 610,-239.85 610,-37.5 475,-37.5"/>
<text xml:space="preserve" text-anchor="middle" x="542.25" y="-224.45" font-family="Sans-Serif" font-size="12.00" fill="#555555">Clip selection pipeline</text>
</g>
<g id="clust4" class="cluster">
<title>cluster_External APIs</title>
<path fill="#f0f4ff" stroke="#aeb6be" stroke-width="2" d="M20,-37.5C20,-37.5 271,-37.5 271,-37.5 277,-37.5 283,-43.5 283,-49.5 283,-49.5 283,-227.85 283,-227.85 283,-233.85 277,-239.85 271,-239.85 271,-239.85 20,-239.85 20,-239.85 14,-239.85 8,-233.85 8,-227.85 8,-227.85 8,-49.5 8,-49.5 8,-43.5 14,-37.5 20,-37.5"/>
<text xml:space="preserve" text-anchor="middle" x="52" y="-224.45" font-family="Sans-Serif" font-size="12.00" fill="#333333">External APIs</text>
</g>
<!-- e14d3510bf094642b9cda4c9a3b36568 -->
<g id="node1" class="node">
<title>e14d3510bf094642b9cda4c9a3b36568</title>
<image xlink:href="/Users/joycewambui/Library/Python/3.9/lib/python/site-packages/resources/onprem/client/user.png" width="100.8px" height="100.8px" preserveAspectRatio="xMinYMin meet" x="333.6" y="-1041.6"/>
<text xml:space="preserve" text-anchor="middle" x="384" y="-921.95" font-family="Helvetica,sans-Serif" font-size="11.00" fill="#2d3436">Browser</text>
<text xml:space="preserve" text-anchor="middle" x="384" y="-909.95" font-family="Helvetica,sans-Serif" font-size="11.00" fill="#2d3436">creator uploads, views dashboard</text>
</g>
<!-- 4a4c030a562a4bffae59a578d4f63b61 -->
<g id="node2" class="node">
<title>4a4c030a562a4bffae59a578d4f63b61</title>
<image xlink:href="/Users/joycewambui/Library/Python/3.9/lib/python/site-packages/resources/generic/compute/rack.png" width="100.8px" height="100.8px" preserveAspectRatio="xMinYMin meet" x="333.6" y="-762.1"/>
<text xml:space="preserve" text-anchor="middle" x="384" y="-640.05" font-family="Helvetica,sans-Serif" font-size="11.00" fill="#2d3436">Edge security + rate limiting</text>
<text xml:space="preserve" text-anchor="middle" x="384" y="-628.05" font-family="Helvetica,sans-Serif" font-size="11.00" fill="#2d3436">CSP/HSTS/X&#45;Frame&#45;Options,</text>
<text xml:space="preserve" text-anchor="middle" x="384" y="-616.05" font-family="Helvetica,sans-Serif" font-size="11.00" fill="#2d3436">proxy.ts session check, rate limiter</text>
</g>
<!-- e14d3510bf094642b9cda4c9a3b36568&#45;&gt;4a4c030a562a4bffae59a578d4f63b61 -->
<g id="edge1" class="edge">
<title>e14d3510bf094642b9cda4c9a3b36568&#45;&gt;4a4c030a562a4bffae59a578d4f63b61</title>
<path fill="none" stroke="#7b8894" d="M384,-908.48C384,-908.48 384,-820.25 384,-820.25"/>
<polygon fill="#7b8894" stroke="#7b8894" points="387.5,-820.25 384,-810.25 380.5,-820.25 387.5,-820.25"/>
<text xml:space="preserve" text-anchor="middle" x="420.38" y="-853.05" font-family="Sans-Serif" font-size="13.00" fill="#2d3436">HTTPS/TLS</text>
</g>
<!-- ac232ebe511a457d82eb2722f48f85ce -->
<g id="node3" class="node">
<title>ac232ebe511a457d82eb2722f48f85ce</title>
<image xlink:href="/Users/joycewambui/Library/Python/3.9/lib/python/site-packages/resources/generic/blank/blank.png" width="100.8px" height="100.8px" preserveAspectRatio="xMinYMin meet" x="333.6" y="-480.7"/>
<text xml:space="preserve" text-anchor="middle" x="384" y="-358.65" font-family="Helvetica,sans-Serif" font-size="11.00" fill="#2d3436">Next.js 16 App Router</text>
<text xml:space="preserve" text-anchor="middle" x="384" y="-346.65" font-family="Helvetica,sans-Serif" font-size="11.00" fill="#2d3436">Pages + API routes + Server Actions</text>
<text xml:space="preserve" text-anchor="middle" x="384" y="-334.65" font-family="Helvetica,sans-Serif" font-size="11.00" fill="#2d3436">auth() + Zod + CSRF checks on all routes</text>
</g>
<!-- 4a4c030a562a4bffae59a578d4f63b61&#45;&gt;ac232ebe511a457d82eb2722f48f85ce -->
<g id="edge2" class="edge">
<title>4a4c030a562a4bffae59a578d4f63b61&#45;&gt;ac232ebe511a457d82eb2722f48f85ce</title>
<path fill="none" stroke="#7b8894" d="M384,-614.86C384,-614.86 384,-538.83 384,-538.83"/>
<polygon fill="#7b8894" stroke="#7b8894" points="387.5,-538.83 384,-528.83 380.5,-538.83 387.5,-538.83"/>
</g>
<!-- 12239992c20a42d8b966e84a17c7e632 -->
<g id="node4" class="node">
<title>12239992c20a42d8b966e84a17c7e632</title>
<image xlink:href="/Users/joycewambui/Library/Python/3.9/lib/python/site-packages/resources/aws/security/identity-and-access-management-iam-aws-sts.png" width="100.8px" height="100.8px" preserveAspectRatio="xMinYMin meet" x="730.6" y="-480.7"/>
<text xml:space="preserve" text-anchor="middle" x="781" y="-360.9" font-family="Helvetica,sans-Serif" font-size="11.00" fill="#2d3436">AWS STS (OIDC)</text>
<text xml:space="preserve" text-anchor="middle" x="781" y="-348.9" font-family="Helvetica,sans-Serif" font-size="11.00" fill="#2d3436">Vercel OIDC → temporary scoped</text>
<text xml:space="preserve" text-anchor="middle" x="781" y="-334.65" font-family="Helvetica,sans-Serif" font-size="11.00" fill="#2d3436">credentials, no long&#45;lived keys</text>
</g>
<!-- ac232ebe511a457d82eb2722f48f85ce&#45;&gt;12239992c20a42d8b966e84a17c7e632 -->
<g id="edge3" class="edge">
<title>ac232ebe511a457d82eb2722f48f85ce&#45;&gt;12239992c20a42d8b966e84a17c7e632</title>
<path fill="none" stroke="#7b8894" d="M434.28,-430.5C434.28,-430.5 719.3,-430.5 719.3,-430.5"/>
<polygon fill="#7b8894" stroke="#7b8894" points="719.3,-434 729.3,-430.5 719.3,-427 719.3,-434"/>
</g>
<!-- 8ebe041e2a984ab1b294e1e29f49967e -->
<g id="node8" class="node">
<title>8ebe041e2a984ab1b294e1e29f49967e</title>
<image xlink:href="/Users/joycewambui/Library/Python/3.9/lib/python/site-packages/resources/aws/security/secrets-manager.png" width="100.8px" height="100.8px" preserveAspectRatio="xMinYMin meet" x="333.6" y="-178.7"/>
<text xml:space="preserve" text-anchor="middle" x="384" y="-61.45" font-family="Helvetica,sans-Serif" font-size="11.00" fill="#2d3436">Centralized secrets</text>
</g>
<!-- ac232ebe511a457d82eb2722f48f85ce&#45;&gt;8ebe041e2a984ab1b294e1e29f49967e -->
<g id="edge7" class="edge">
<title>ac232ebe511a457d82eb2722f48f85ce&#45;&gt;8ebe041e2a984ab1b294e1e29f49967e</title>
<path fill="none" stroke="#7b8894" d="M394.08,-333.5C394.08,-333.5 394.08,-207.88 394.08,-207.88"/>
<polygon fill="#7b8894" stroke="#7b8894" points="397.58,-207.88 394.08,-197.88 390.58,-207.88 397.58,-207.88"/>
<text xml:space="preserve" text-anchor="middle" x="429.75" y="-277.75" font-family="Sans-Serif" font-size="13.00" fill="#2d3436">runtime secrets</text>
</g>
<!-- 34aada80bfe241e39c62690df2101a5c -->
<g id="node9" class="node">
<title>34aada80bfe241e39c62690df2101a5c</title>
<image xlink:href="/Users/joycewambui/Library/Python/3.9/lib/python/site-packages/resources/generic/blank/blank.png" width="100.8px" height="100.8px" preserveAspectRatio="xMinYMin meet" x="492.6" y="-178.7"/>
<text xml:space="preserve" text-anchor="middle" x="543" y="-59.05" font-family="Helvetica,sans-Serif" font-size="11.00" fill="#2d3436">Two&#45;tier Claude scoring</text>
<text xml:space="preserve" text-anchor="middle" x="543" y="-47.05" font-family="Helvetica,sans-Serif" font-size="11.00" fill="#2d3436">(see diagram 2)</text>
</g>
<!-- ac232ebe511a457d82eb2722f48f85ce&#45;&gt;34aada80bfe241e39c62690df2101a5c -->
<g id="edge8" class="edge">
<title>ac232ebe511a457d82eb2722f48f85ce&#45;&gt;34aada80bfe241e39c62690df2101a5c</title>
<path fill="none" stroke="#7b8894" d="M414.24,-333.18C414.24,-270.46 414.24,-200.5 414.24,-200.5 414.24,-200.5 481.34,-200.5 481.34,-200.5"/>
<polygon fill="#7b8894" stroke="#7b8894" points="481.34,-204 491.34,-200.5 481.34,-197 481.34,-204"/>
</g>
<!-- a560d4e889ce4406947dc0cf9ea4bb5c -->
<g id="node10" class="node">
<title>a560d4e889ce4406947dc0cf9ea4bb5c</title>
<image xlink:href="/Users/joycewambui/Library/Python/3.9/lib/python/site-packages/resources/generic/blank/blank.png" width="100.8px" height="100.8px" preserveAspectRatio="xMinYMin meet" x="15.6" y="-178.7"/>
<text xml:space="preserve" text-anchor="middle" x="66" y="-59.05" font-family="Helvetica,sans-Serif" font-size="11.00" fill="#2d3436">Stripe</text>
<text xml:space="preserve" text-anchor="middle" x="66" y="-47.05" font-family="Helvetica,sans-Serif" font-size="11.00" fill="#2d3436">(Checkout + Webhooks)</text>
</g>
<!-- ac232ebe511a457d82eb2722f48f85ce&#45;&gt;a560d4e889ce4406947dc0cf9ea4bb5c -->
<g id="edge9" class="edge">
<title>ac232ebe511a457d82eb2722f48f85ce&#45;&gt;a560d4e889ce4406947dc0cf9ea4bb5c</title>
<path fill="none" stroke="#7b8894" stroke-dasharray="5,2" d="M373.92,-333.13C373.92,-271.57 373.92,-203.5 373.92,-203.5 373.92,-203.5 127.67,-203.5 127.67,-203.5"/>
<polygon fill="#7b8894" stroke="#7b8894" points="127.67,-200 117.67,-203.5 127.67,-207 127.67,-200"/>
<text xml:space="preserve" text-anchor="middle" x="127" y="-277.75" font-family="Sans-Serif" font-size="13.00" fill="#2d3436">webhook</text>
</g>
<!-- f30b9c1d55e24363be5e792c3e4066d5 -->
<g id="node5" class="node">
<title>f30b9c1d55e24363be5e792c3e4066d5</title>
<image xlink:href="/Users/joycewambui/Library/Python/3.9/lib/python/site-packages/resources/aws/database/dynamodb.png" width="100.8px" height="100.8px" preserveAspectRatio="xMinYMin meet" x="651.6" y="-178.7"/>
<text xml:space="preserve" text-anchor="middle" x="702" y="-59.05" font-family="Helvetica,sans-Serif" font-size="11.00" fill="#2d3436">truss&#45;main</text>
<text xml:space="preserve" text-anchor="middle" x="702" y="-47.05" font-family="Helvetica,sans-Serif" font-size="11.00" fill="#2d3436">(single table)</text>
</g>
<!-- 12239992c20a42d8b966e84a17c7e632&#45;&gt;f30b9c1d55e24363be5e792c3e4066d5 -->
<g id="edge4" class="edge">
<title>12239992c20a42d8b966e84a17c7e632&#45;&gt;f30b9c1d55e24363be5e792c3e4066d5</title>
<path fill="none" stroke="#7b8894" d="M741.5,-333.5C741.5,-333.5 741.5,-222.37 741.5,-222.37"/>
<polygon fill="#7b8894" stroke="#7b8894" points="745,-222.37 741.5,-212.37 738,-222.37 745,-222.37"/>
</g>
<!-- 5423b1b5e484474e9ad81652e4da83ea -->
<g id="node6" class="node">
<title>5423b1b5e484474e9ad81652e4da83ea</title>
<image xlink:href="/Users/joycewambui/Library/Python/3.9/lib/python/site-packages/resources/aws/storage/simple-storage-service-s3.png" width="100.8px" height="100.8px" preserveAspectRatio="xMinYMin meet" x="810.6" y="-178.7"/>
<text xml:space="preserve" text-anchor="middle" x="861" y="-59.05" font-family="Helvetica,sans-Serif" font-size="11.00" fill="#2d3436">truss&#45;uploads</text>
<text xml:space="preserve" text-anchor="middle" x="861" y="-47.05" font-family="Helvetica,sans-Serif" font-size="11.00" fill="#2d3436">(presigned, scoped bucket)</text>
</g>
<!-- 12239992c20a42d8b966e84a17c7e632&#45;&gt;5423b1b5e484474e9ad81652e4da83ea -->
<g id="edge5" class="edge">
<title>12239992c20a42d8b966e84a17c7e632&#45;&gt;5423b1b5e484474e9ad81652e4da83ea</title>
<path fill="none" stroke="#7b8894" d="M821,-333.5C821,-333.5 821,-222.37 821,-222.37"/>
<polygon fill="#7b8894" stroke="#7b8894" points="824.5,-222.37 821,-212.37 817.5,-222.37 824.5,-222.37"/>
</g>
<!-- 56961dfb85364ddaa1a7bf726910f707 -->
<g id="node7" class="node">
<title>56961dfb85364ddaa1a7bf726910f707</title>
<image xlink:href="/Users/joycewambui/Library/Python/3.9/lib/python/site-packages/resources/aws/security/cognito.png" width="100.8px" height="100.8px" preserveAspectRatio="xMinYMin meet" x="969.6" y="-178.7"/>
<text xml:space="preserve" text-anchor="middle" x="1020" y="-59.05" font-family="Helvetica,sans-Serif" font-size="11.00" fill="#2d3436">User Pool</text>
<text xml:space="preserve" text-anchor="middle" x="1020" y="-47.05" font-family="Helvetica,sans-Serif" font-size="11.00" fill="#2d3436">(MFA/TOTP)</text>
</g>
<!-- 12239992c20a42d8b966e84a17c7e632&#45;&gt;56961dfb85364ddaa1a7bf726910f707 -->
<g id="edge6" class="edge">
<title>12239992c20a42d8b966e84a17c7e632&#45;&gt;56961dfb85364ddaa1a7bf726910f707</title>
<path fill="none" stroke="#7b8894" d="M831.39,-430.5C901.51,-430.5 1020,-430.5 1020,-430.5 1020,-430.5 1020,-222.39 1020,-222.39"/>
<polygon fill="#7b8894" stroke="#7b8894" points="1023.5,-222.39 1020,-212.39 1016.5,-222.39 1023.5,-222.39"/>
</g>
<!-- f8037d7ea7814965963b8756a864a1f3 -->
<g id="node11" class="node">
<title>f8037d7ea7814965963b8756a864a1f3</title>
<image xlink:href="/Users/joycewambui/Library/Python/3.9/lib/python/site-packages/resources/generic/blank/blank.png" width="100.8px" height="100.8px" preserveAspectRatio="xMinYMin meet" x="174.6" y="-178.7"/>
<text xml:space="preserve" text-anchor="middle" x="225" y="-61.45" font-family="Helvetica,sans-Serif" font-size="11.00" fill="#2d3436">Anthropic API</text>
</g>
<!-- 34aada80bfe241e39c62690df2101a5c&#45;&gt;f8037d7ea7814965963b8756a864a1f3 -->
<g id="edge11" class="edge">
<title>34aada80bfe241e39c62690df2101a5c&#45;&gt;f8037d7ea7814965963b8756a864a1f3</title>
<path fill="none" stroke="#7b8894" d="M492.61,-52.5C402.94,-52.5 225,-52.5 225,-52.5 225,-52.5 225,-53.25 225,-53.25"/>
<polygon fill="#7b8894" stroke="#7b8894" points="221.5,-48.53 225,-58.53 228.5,-48.53 221.5,-48.53"/>
</g>
<!-- a560d4e889ce4406947dc0cf9ea4bb5c&#45;&gt;ac232ebe511a457d82eb2722f48f85ce -->
<g id="edge10" class="edge">
<title>a560d4e889ce4406947dc0cf9ea4bb5c&#45;&gt;ac232ebe511a457d82eb2722f48f85ce</title>
<path fill="none" stroke="#7b8894" stroke-dasharray="5,2" d="M116.12,-207.5C198.57,-207.5 353.76,-207.5 353.76,-207.5 353.76,-207.5 353.76,-321.71 353.76,-321.71"/>
<polygon fill="#7b8894" stroke="#7b8894" points="350.26,-321.71 353.76,-331.71 357.26,-321.71 350.26,-321.71"/>
</g>
</g>
</svg>
