<?xml version="1.0" encoding="UTF-8" standalone="no"?>
<!DOCTYPE svg PUBLIC "-//W3C//DTD SVG 1.1//EN"
 "http://www.w3.org/Graphics/SVG/1.1/DTD/svg11.dtd">
<!-- Generated by graphviz version 15.0.0 (20260523.1842)
 -->
<!-- Title: Truss — Target State: Request / Data Flow Pages: 1 -->
<svg width="1194pt" height="1188pt"
 viewBox="0.00 0.00 1194.00 1188.00" xmlns="http://www.w3.org/2000/svg" xmlns:xlink="http://www.w3.org/1999/xlink">
<g id="graph0" class="graph" transform="scale(1 1) rotate(0) translate(54 1134.4)">
<title>Truss — Target State: Request / Data Flow</title>
<polygon fill="#ffffff" stroke="none" points="-54,54 -54,-1134.4 1140,-1134.4 1140,54 -54,54"/>
<text xml:space="preserve" text-anchor="middle" x="543" y="-5.15" font-family="Helvetica,sans-Serif" font-size="13.00" fill="#2d3436">Truss — Target State: Request / Data Flow</text>
<g id="clust1" class="cluster">
<title>cluster_Vercel Edge Network</title>
<path fill="#f5f5f5" stroke="#aeb6be" stroke-width="2" d="M421,-331.5C421,-331.5 525,-331.5 525,-331.5 531,-331.5 537,-337.5 537,-343.5 537,-343.5 537,-832.05 537,-832.05 537,-838.05 531,-844.05 525,-844.05 525,-844.05 421,-844.05 421,-844.05 415,-844.05 409,-838.05 409,-832.05 409,-832.05 409,-343.5 409,-343.5 409,-337.5 415,-331.5 421,-331.5"/>
<text xml:space="preserve" text-anchor="middle" x="472.88" y="-828.65" font-family="Sans-Serif" font-size="12.00" fill="#333333">Vercel Edge Network</text>
</g>
<g id="clust2" class="cluster">
<title>cluster_AWS (eu&#45;west&#45;1)</title>
<path fill="#fff8f0" stroke="#aeb6be" stroke-width="2" d="M489,-29.5C489,-29.5 1066,-29.5 1066,-29.5 1072,-29.5 1078,-35.5 1078,-41.5 1078,-41.5 1078,-263 1078,-263 1078,-269 1072,-275 1066,-275 1066,-275 489,-275 489,-275 483,-275 477,-269 477,-263 477,-263 477,-41.5 477,-41.5 477,-35.5 483,-29.5 489,-29.5"/>
<text xml:space="preserve" text-anchor="middle" x="530" y="-259.6" font-family="Sans-Serif" font-size="12.00" fill="#333333">AWS (eu&#45;west&#45;1)</text>
</g>
<g id="clust3" class="cluster">
<title>cluster_AI Analysis Pipeline</title>
<polygon fill="#f9f9f9" stroke="#aeb6be" stroke-width="2" stroke-dasharray="5,2" points="485,-43.9 485,-246.25 608,-246.25 608,-43.9 485,-43.9"/>
<text xml:space="preserve" text-anchor="middle" x="546.25" y="-230.85" font-family="Sans-Serif" font-size="12.00" fill="#555555">AI Analysis Pipeline</text>
</g>
<g id="clust4" class="cluster">
<title>cluster_External APIs</title>
<path fill="#f0f4ff" stroke="#aeb6be" stroke-width="2" d="M20,-43.9C20,-43.9 430,-43.9 430,-43.9 436,-43.9 442,-49.9 442,-55.9 442,-55.9 442,-234.25 442,-234.25 442,-240.25 436,-246.25 430,-246.25 430,-246.25 20,-246.25 20,-246.25 14,-246.25 8,-240.25 8,-234.25 8,-234.25 8,-55.9 8,-55.9 8,-49.9 14,-43.9 20,-43.9"/>
<text xml:space="preserve" text-anchor="middle" x="52" y="-230.85" font-family="Sans-Serif" font-size="12.00" fill="#333333">External APIs</text>
</g>
<!-- e4f4b3f25a964015a69f2ae06b31e388 -->
<g id="node1" class="node">
<title>e4f4b3f25a964015a69f2ae06b31e388</title>
<image xlink:href="/Users/joycewambui/Library/Python/3.9/lib/python/site-packages/resources/onprem/client/user.png" width="100.8px" height="100.8px" preserveAspectRatio="xMinYMin meet" x="422.6" y="-1048"/>
<text xml:space="preserve" text-anchor="middle" x="473" y="-928.35" font-family="Helvetica,sans-Serif" font-size="11.00" fill="#2d3436">Browser</text>
<text xml:space="preserve" text-anchor="middle" x="473" y="-916.35" font-family="Helvetica,sans-Serif" font-size="11.00" fill="#2d3436">creator uploads, views dashboard</text>
</g>
<!-- 3467169b823046f09afc76d0b88d3805 -->
<g id="node2" class="node">
<title>3467169b823046f09afc76d0b88d3805</title>
<image xlink:href="/Users/joycewambui/Library/Python/3.9/lib/python/site-packages/resources/generic/compute/rack.png" width="100.8px" height="100.8px" preserveAspectRatio="xMinYMin meet" x="422.6" y="-768.5"/>
<text xml:space="preserve" text-anchor="middle" x="473" y="-646.45" font-family="Helvetica,sans-Serif" font-size="11.00" fill="#2d3436">Edge security + rate limiting</text>
<text xml:space="preserve" text-anchor="middle" x="473" y="-634.45" font-family="Helvetica,sans-Serif" font-size="11.00" fill="#2d3436">CSP/HSTS/X&#45;Frame&#45;Options,</text>
<text xml:space="preserve" text-anchor="middle" x="473" y="-622.45" font-family="Helvetica,sans-Serif" font-size="11.00" fill="#2d3436">proxy.ts session check, rate limiter</text>
</g>
<!-- e4f4b3f25a964015a69f2ae06b31e388&#45;&gt;3467169b823046f09afc76d0b88d3805 -->
<g id="edge1" class="edge">
<title>e4f4b3f25a964015a69f2ae06b31e388&#45;&gt;3467169b823046f09afc76d0b88d3805</title>
<path fill="none" stroke="#7b8894" d="M473,-914.88C473,-914.88 473,-826.65 473,-826.65"/>
<polygon fill="#7b8894" stroke="#7b8894" points="476.5,-826.65 473,-816.65 469.5,-826.65 476.5,-826.65"/>
<text xml:space="preserve" text-anchor="middle" x="509.38" y="-859.45" font-family="Sans-Serif" font-size="13.00" fill="#2d3436">HTTPS/TLS</text>
</g>
<!-- 6b557b3ffd264c27a9e66a1e848808e0 -->
<g id="node3" class="node">
<title>6b557b3ffd264c27a9e66a1e848808e0</title>
<image xlink:href="/Users/joycewambui/Library/Python/3.9/lib/python/site-packages/resources/generic/blank/blank.png" width="100.8px" height="100.8px" preserveAspectRatio="xMinYMin meet" x="422.6" y="-487.1"/>
<text xml:space="preserve" text-anchor="middle" x="473" y="-365.05" font-family="Helvetica,sans-Serif" font-size="11.00" fill="#2d3436">Next.js 16 App Router</text>
<text xml:space="preserve" text-anchor="middle" x="473" y="-353.05" font-family="Helvetica,sans-Serif" font-size="11.00" fill="#2d3436">Pages + API routes + Server Actions</text>
<text xml:space="preserve" text-anchor="middle" x="473" y="-341.05" font-family="Helvetica,sans-Serif" font-size="11.00" fill="#2d3436">auth() + Zod + CSRF checks on all routes</text>
</g>
<!-- 3467169b823046f09afc76d0b88d3805&#45;&gt;6b557b3ffd264c27a9e66a1e848808e0 -->
<g id="edge2" class="edge">
<title>3467169b823046f09afc76d0b88d3805&#45;&gt;6b557b3ffd264c27a9e66a1e848808e0</title>
<path fill="none" stroke="#7b8894" d="M473,-621.26C473,-621.26 473,-545.23 473,-545.23"/>
<polygon fill="#7b8894" stroke="#7b8894" points="476.5,-545.23 473,-535.23 469.5,-545.23 476.5,-545.23"/>
</g>
<!-- e74e3bd80ae44effbb116bbf6d01bd93 -->
<g id="node4" class="node">
<title>e74e3bd80ae44effbb116bbf6d01bd93</title>
<image xlink:href="/Users/joycewambui/Library/Python/3.9/lib/python/site-packages/resources/aws/security/identity-and-access-management-iam-aws-sts.png" width="100.8px" height="100.8px" preserveAspectRatio="xMinYMin meet" x="730.6" y="-487.1"/>
<text xml:space="preserve" text-anchor="middle" x="781" y="-367.3" font-family="Helvetica,sans-Serif" font-size="11.00" fill="#2d3436">AWS STS (OIDC)</text>
<text xml:space="preserve" text-anchor="middle" x="781" y="-355.3" font-family="Helvetica,sans-Serif" font-size="11.00" fill="#2d3436">Vercel OIDC → temporary scoped</text>
<text xml:space="preserve" text-anchor="middle" x="781" y="-341.05" font-family="Helvetica,sans-Serif" font-size="11.00" fill="#2d3436">credentials, no long&#45;lived keys</text>
</g>
<!-- 6b557b3ffd264c27a9e66a1e848808e0&#45;&gt;e74e3bd80ae44effbb116bbf6d01bd93 -->
<g id="edge3" class="edge">
<title>6b557b3ffd264c27a9e66a1e848808e0&#45;&gt;e74e3bd80ae44effbb116bbf6d01bd93</title>
<path fill="none" stroke="#7b8894" d="M523.17,-436.5C523.17,-436.5 719.34,-436.5 719.34,-436.5"/>
<polygon fill="#7b8894" stroke="#7b8894" points="719.34,-440 729.34,-436.5 719.34,-433 719.34,-440"/>
</g>
<!-- 31599b2b9bb44bad8583ae94eb04364c -->
<g id="node8" class="node">
<title>31599b2b9bb44bad8583ae94eb04364c</title>
<image xlink:href="/Users/joycewambui/Library/Python/3.9/lib/python/site-packages/resources/generic/blank/blank.png" width="100.8px" height="100.8px" preserveAspectRatio="xMinYMin meet" x="492.6" y="-185.1"/>
<text xml:space="preserve" text-anchor="middle" x="543" y="-65.45" font-family="Helvetica,sans-Serif" font-size="11.00" fill="#2d3436">AI highlight scoring</text>
<text xml:space="preserve" text-anchor="middle" x="543" y="-53.45" font-family="Helvetica,sans-Serif" font-size="11.00" fill="#2d3436">(Google Gemini)</text>
</g>
<!-- 6b557b3ffd264c27a9e66a1e848808e0&#45;&gt;31599b2b9bb44bad8583ae94eb04364c -->
<g id="edge7" class="edge">
<title>6b557b3ffd264c27a9e66a1e848808e0&#45;&gt;31599b2b9bb44bad8583ae94eb04364c</title>
<path fill="none" stroke="#7b8894" d="M502.87,-339.9C502.87,-339.9 502.87,-228.77 502.87,-228.77"/>
<polygon fill="#7b8894" stroke="#7b8894" points="506.37,-228.77 502.87,-218.77 499.37,-228.77 506.37,-228.77"/>
</g>
<!-- da0ecfb3d3ab427d93c446598087efb1 -->
<g id="node9" class="node">
<title>da0ecfb3d3ab427d93c446598087efb1</title>
<image xlink:href="/Users/joycewambui/Library/Python/3.9/lib/python/site-packages/resources/generic/blank/blank.png" width="100.8px" height="100.8px" preserveAspectRatio="xMinYMin meet" x="333.6" y="-185.1"/>
<text xml:space="preserve" text-anchor="middle" x="384" y="-65.45" font-family="Helvetica,sans-Serif" font-size="11.00" fill="#2d3436">Stripe</text>
<text xml:space="preserve" text-anchor="middle" x="384" y="-53.45" font-family="Helvetica,sans-Serif" font-size="11.00" fill="#2d3436">(Checkout + Webhooks)</text>
</g>
<!-- 6b557b3ffd264c27a9e66a1e848808e0&#45;&gt;da0ecfb3d3ab427d93c446598087efb1 -->
<g id="edge9" class="edge">
<title>6b557b3ffd264c27a9e66a1e848808e0&#45;&gt;da0ecfb3d3ab427d93c446598087efb1</title>
<path fill="none" stroke="#7b8894" stroke-dasharray="5,2" d="M430.47,-339.9C430.47,-339.9 430.47,-228.77 430.47,-228.77"/>
<polygon fill="#7b8894" stroke="#7b8894" points="433.97,-228.77 430.47,-218.77 426.97,-228.77 433.97,-228.77"/>
<text xml:space="preserve" text-anchor="middle" x="411" y="-284.15" font-family="Sans-Serif" font-size="13.00" fill="#2d3436">webhook</text>
</g>
<!-- 224a2d46b40f4d07b86a35437f15b2db -->
<g id="node11" class="node">
<title>224a2d46b40f4d07b86a35437f15b2db</title>
<image xlink:href="/Users/joycewambui/Library/Python/3.9/lib/python/site-packages/resources/generic/blank/blank.png" width="100.8px" height="100.8px" preserveAspectRatio="xMinYMin meet" x="174.6" y="-185.1"/>
<text xml:space="preserve" text-anchor="middle" x="225" y="-65.45" font-family="Helvetica,sans-Serif" font-size="11.00" fill="#2d3436">Resend</text>
<text xml:space="preserve" text-anchor="middle" x="225" y="-53.45" font-family="Helvetica,sans-Serif" font-size="11.00" fill="#2d3436">(magic link email)</text>
</g>
<!-- 6b557b3ffd264c27a9e66a1e848808e0&#45;&gt;224a2d46b40f4d07b86a35437f15b2db -->
<g id="edge8" class="edge">
<title>6b557b3ffd264c27a9e66a1e848808e0&#45;&gt;224a2d46b40f4d07b86a35437f15b2db</title>
<path fill="none" stroke="#7b8894" stroke-dasharray="5,2" d="M422.81,-436.5C350.35,-436.5 225,-436.5 225,-436.5 225,-436.5 225,-228.68 225,-228.68"/>
<polygon fill="#7b8894" stroke="#7b8894" points="228.5,-228.68 225,-218.68 221.5,-228.68 228.5,-228.68"/>
<text xml:space="preserve" text-anchor="middle" x="273.62" y="-284.15" font-family="Sans-Serif" font-size="13.00" fill="#2d3436">magic link</text>
</g>
<!-- 9a81b80aaf8440c6b1a65e1ae36d0fa2 -->
<g id="node5" class="node">
<title>9a81b80aaf8440c6b1a65e1ae36d0fa2</title>
<image xlink:href="/Users/joycewambui/Library/Python/3.9/lib/python/site-packages/resources/aws/database/dynamodb.png" width="100.8px" height="100.8px" preserveAspectRatio="xMinYMin meet" x="969.6" y="-185.1"/>
<text xml:space="preserve" text-anchor="middle" x="1020" y="-63.05" font-family="Helvetica,sans-Serif" font-size="11.00" fill="#2d3436">truss&#45;main</text>
<text xml:space="preserve" text-anchor="middle" x="1020" y="-51.05" font-family="Helvetica,sans-Serif" font-size="11.00" fill="#2d3436">(single table,</text>
<text xml:space="preserve" text-anchor="middle" x="1020" y="-39.05" font-family="Helvetica,sans-Serif" font-size="11.00" fill="#2d3436">inc. magic&#45;link tokens)</text>
</g>
<!-- e74e3bd80ae44effbb116bbf6d01bd93&#45;&gt;9a81b80aaf8440c6b1a65e1ae36d0fa2 -->
<g id="edge4" class="edge">
<title>e74e3bd80ae44effbb116bbf6d01bd93&#45;&gt;9a81b80aaf8440c6b1a65e1ae36d0fa2</title>
<path fill="none" stroke="#7b8894" d="M824.47,-339.63C824.47,-282.95 824.47,-222.5 824.47,-222.5 824.47,-222.5 958.13,-222.5 958.13,-222.5"/>
<polygon fill="#7b8894" stroke="#7b8894" points="958.13,-226 968.13,-222.5 958.13,-219 958.13,-226"/>
</g>
<!-- 0aefa66ce8dc49999432c0fb66ee8035 -->
<g id="node6" class="node">
<title>0aefa66ce8dc49999432c0fb66ee8035</title>
<image xlink:href="/Users/joycewambui/Library/Python/3.9/lib/python/site-packages/resources/aws/storage/simple-storage-service-s3.png" width="100.8px" height="100.8px" preserveAspectRatio="xMinYMin meet" x="651.6" y="-185.1"/>
<text xml:space="preserve" text-anchor="middle" x="702" y="-65.45" font-family="Helvetica,sans-Serif" font-size="11.00" fill="#2d3436">truss&#45;uploads</text>
<text xml:space="preserve" text-anchor="middle" x="702" y="-53.45" font-family="Helvetica,sans-Serif" font-size="11.00" fill="#2d3436">(presigned, scoped bucket)</text>
</g>
<!-- e74e3bd80ae44effbb116bbf6d01bd93&#45;&gt;0aefa66ce8dc49999432c0fb66ee8035 -->
<g id="edge5" class="edge">
<title>e74e3bd80ae44effbb116bbf6d01bd93&#45;&gt;0aefa66ce8dc49999432c0fb66ee8035</title>
<path fill="none" stroke="#7b8894" d="M741.5,-339.9C741.5,-339.9 741.5,-228.77 741.5,-228.77"/>
<polygon fill="#7b8894" stroke="#7b8894" points="745,-228.77 741.5,-218.77 738,-228.77 745,-228.77"/>
</g>
<!-- 482b79a0b9344d1da8f26b70d880a03e -->
<g id="node7" class="node">
<title>482b79a0b9344d1da8f26b70d880a03e</title>
<image xlink:href="/Users/joycewambui/Library/Python/3.9/lib/python/site-packages/resources/aws/security/cognito.png" width="100.8px" height="100.8px" preserveAspectRatio="xMinYMin meet" x="810.6" y="-185.1"/>
<text xml:space="preserve" text-anchor="middle" x="861" y="-65.45" font-family="Helvetica,sans-Serif" font-size="11.00" fill="#2d3436">User Pool</text>
<text xml:space="preserve" text-anchor="middle" x="861" y="-53.45" font-family="Helvetica,sans-Serif" font-size="11.00" fill="#2d3436">(signup / verify)</text>
</g>
<!-- e74e3bd80ae44effbb116bbf6d01bd93&#45;&gt;482b79a0b9344d1da8f26b70d880a03e -->
<g id="edge6" class="edge">
<title>e74e3bd80ae44effbb116bbf6d01bd93&#45;&gt;482b79a0b9344d1da8f26b70d880a03e</title>
<path fill="none" stroke="#7b8894" d="M817.53,-339.9C817.53,-339.9 817.53,-228.77 817.53,-228.77"/>
<polygon fill="#7b8894" stroke="#7b8894" points="821.03,-228.77 817.53,-218.77 814.03,-228.77 821.03,-228.77"/>
</g>
<!-- 036dd373c0464b27a1c0260109c45f11 -->
<g id="node10" class="node">
<title>036dd373c0464b27a1c0260109c45f11</title>
<image xlink:href="/Users/joycewambui/Library/Python/3.9/lib/python/site-packages/resources/generic/blank/blank.png" width="100.8px" height="100.8px" preserveAspectRatio="xMinYMin meet" x="15.6" y="-185.1"/>
<text xml:space="preserve" text-anchor="middle" x="66" y="-65.45" font-family="Helvetica,sans-Serif" font-size="11.00" fill="#2d3436">Google AI</text>
<text xml:space="preserve" text-anchor="middle" x="66" y="-53.45" font-family="Helvetica,sans-Serif" font-size="11.00" fill="#2d3436">(gemini&#45;3.5&#45;flash)</text>
</g>
<!-- 31599b2b9bb44bad8583ae94eb04364c&#45;&gt;036dd373c0464b27a1c0260109c45f11 -->
<g id="edge11" class="edge">
<title>31599b2b9bb44bad8583ae94eb04364c&#45;&gt;036dd373c0464b27a1c0260109c45f11</title>
<path fill="none" stroke="#7b8894" d="M513.13,-217.21C513.13,-223.52 513.13,-227.5 513.13,-227.5 513.13,-227.5 66,-227.5 66,-227.5 66,-227.5 66,-226.47 66,-226.47"/>
<polygon fill="#7b8894" stroke="#7b8894" points="69.5,-228.73 66,-218.73 62.5,-228.73 69.5,-228.73"/>
</g>
<!-- da0ecfb3d3ab427d93c446598087efb1&#45;&gt;6b557b3ffd264c27a9e66a1e848808e0 -->
<g id="edge10" class="edge">
<title>da0ecfb3d3ab427d93c446598087efb1&#45;&gt;6b557b3ffd264c27a9e66a1e848808e0</title>
<path fill="none" stroke="#7b8894" stroke-dasharray="5,2" d="M426.53,-217.22C426.53,-217.22 426.53,-328.03 426.53,-328.03"/>
<polygon fill="#7b8894" stroke="#7b8894" points="423.03,-328.03 426.53,-338.03 430.03,-328.03 423.03,-328.03"/>
</g>
</g>
</svg>
