<?xml version="1.0" encoding="UTF-8" standalone="no"?>
<!DOCTYPE svg PUBLIC "-//W3C//DTD SVG 1.1//EN"
 "http://www.w3.org/Graphics/SVG/1.1/DTD/svg11.dtd">
<!-- Generated by graphviz version 15.0.0 (20260523.1842)
 -->
<!-- Title: Truss — Target State: Request / Data Flow
(Well&#45;Architected: Security · Reliability · Ops Excellence) Pages: 1 -->
<svg width="1872pt" height="1568pt"
 viewBox="0.00 0.00 1872.00 1568.00" xmlns="http://www.w3.org/2000/svg" xmlns:xlink="http://www.w3.org/1999/xlink">
<g id="graph0" class="graph" transform="scale(1 1) rotate(0) translate(57.6 1510.2)">
<title>Truss — Target State: Request / Data Flow
(Well&#45;Architected: Security · Reliability · Ops Excellence)</title>
<polygon fill="#ffffff" stroke="none" points="-57.6,57.6 -57.6,-1510.2 1814,-1510.2 1814,57.6 -57.6,57.6"/>
<text xml:space="preserve" text-anchor="middle" x="878.2" y="-1433.4" font-family="Helvetica,sans-Serif" font-size="16.00" fill="#222222">Truss — Target State: Request / Data Flow</text>
<text xml:space="preserve" text-anchor="middle" x="878.2" y="-1416.9" font-family="Helvetica,sans-Serif" font-size="16.00" fill="#222222">(Well&#45;Architected: Security · Reliability · Ops Excellence)</text>
<g id="clust1" class="cluster">
<title>cluster_Vercel Edge Network &#160;— &#160;Performance &amp; Cost
edge caching · serverless compute</title>
<path fill="#f5f5f5" stroke="#aeb6be" stroke-width="2" d="M293.55,-512.6C293.55,-512.6 604.15,-512.6 604.15,-512.6 610.15,-512.6 616.15,-518.6 616.15,-524.6 616.15,-524.6 616.15,-744.6 616.15,-744.6 616.15,-750.6 610.15,-756.6 604.15,-756.6 604.15,-756.6 293.55,-756.6 293.55,-756.6 287.55,-756.6 281.55,-750.6 281.55,-744.6 281.55,-744.6 281.55,-524.6 281.55,-524.6 281.55,-518.6 287.55,-512.6 293.55,-512.6"/>
<text xml:space="preserve" text-anchor="middle" x="411.05" y="-741.2" font-family="Sans-Serif" font-size="12.00" fill="#333333">Vercel Edge Network &#160;— &#160;Performance &amp; Cost</text>
<text xml:space="preserve" text-anchor="middle" x="411.05" y="-728.45" font-family="Sans-Serif" font-size="12.00" fill="#333333">edge caching · serverless compute</text>
</g>
<g id="clust2" class="cluster">
<title>cluster_Identity Boundary — Security Pillar
OIDC federation · zero long&#45;lived keys</title>
<path fill="#fff5f5" stroke="#aeb6be" stroke-width="2" stroke-dasharray="5,2" d="M813.65,-921.6C813.65,-921.6 1007.4,-921.6 1007.4,-921.6 1013.4,-921.6 1019.4,-927.6 1019.4,-933.6 1019.4,-933.6 1019.4,-1391.6 1019.4,-1391.6 1019.4,-1397.6 1013.4,-1403.6 1007.4,-1403.6 1007.4,-1403.6 813.65,-1403.6 813.65,-1403.6 807.65,-1403.6 801.65,-1397.6 801.65,-1391.6 801.65,-1391.6 801.65,-933.6 801.65,-933.6 801.65,-927.6 807.65,-921.6 813.65,-921.6"/>
<text xml:space="preserve" text-anchor="middle" x="910.53" y="-1388.2" font-family="Sans-Serif" font-size="12.00" fill="#742a2a">Identity Boundary — Security Pillar</text>
<text xml:space="preserve" text-anchor="middle" x="910.53" y="-1375.45" font-family="Sans-Serif" font-size="12.00" fill="#742a2a">OIDC federation · zero long&#45;lived keys</text>
</g>
<g id="clust3" class="cluster">
<title>cluster_AWS (eu&#45;west&#45;1) — Reliability Pillar
scoped, least&#45;privilege resource access</title>
<path fill="#fff8f0" stroke="#aeb6be" stroke-width="2" d="M1213.15,-669.6C1213.15,-669.6 1415.15,-669.6 1415.15,-669.6 1421.15,-669.6 1427.15,-675.6 1427.15,-681.6 1427.15,-681.6 1427.15,-1376.6 1427.15,-1376.6 1427.15,-1382.6 1421.15,-1388.6 1415.15,-1388.6 1415.15,-1388.6 1213.15,-1388.6 1213.15,-1388.6 1207.15,-1388.6 1201.15,-1382.6 1201.15,-1376.6 1201.15,-1376.6 1201.15,-681.6 1201.15,-681.6 1201.15,-675.6 1207.15,-669.6 1213.15,-669.6"/>
<text xml:space="preserve" text-anchor="middle" x="1314.15" y="-1373.2" font-family="Sans-Serif" font-size="12.00" fill="#333333">AWS (eu&#45;west&#45;1) — Reliability Pillar</text>
<text xml:space="preserve" text-anchor="middle" x="1314.15" y="-1360.45" font-family="Sans-Serif" font-size="12.00" fill="#333333">scoped, least&#45;privilege resource access</text>
</g>
<g id="clust4" class="cluster">
<title>cluster_External APIs</title>
<path fill="#f0f4ff" stroke="#aeb6be" stroke-width="2" d="M863.63,-50.6C863.63,-50.6 956.43,-50.6 956.43,-50.6 962.43,-50.6 968.43,-56.6 968.43,-62.6 968.43,-62.6 968.43,-717.6 968.43,-717.6 968.43,-723.6 962.43,-729.6 956.43,-729.6 956.43,-729.6 863.63,-729.6 863.63,-729.6 857.63,-729.6 851.63,-723.6 851.63,-717.6 851.63,-717.6 851.63,-62.6 851.63,-62.6 851.63,-56.6 857.63,-50.6 863.63,-50.6"/>
<text xml:space="preserve" text-anchor="middle" x="895.63" y="-714.2" font-family="Sans-Serif" font-size="12.00" fill="#333333">External APIs</text>
</g>
<g id="clust5" class="cluster">
<title>cluster_Observability — Operational Excellence</title>
<path fill="#f0fff4" stroke="#aeb6be" stroke-width="1.5" stroke-dasharray="1,5" d="M1540.15,-794.6C1540.15,-794.6 1744.4,-794.6 1744.4,-794.6 1750.4,-794.6 1756.4,-800.6 1756.4,-806.6 1756.4,-806.6 1756.4,-985.6 1756.4,-985.6 1756.4,-991.6 1750.4,-997.6 1744.4,-997.6 1744.4,-997.6 1540.15,-997.6 1540.15,-997.6 1534.15,-997.6 1528.15,-991.6 1528.15,-985.6 1528.15,-985.6 1528.15,-806.6 1528.15,-806.6 1528.15,-800.6 1534.15,-794.6 1540.15,-794.6"/>
<text xml:space="preserve" text-anchor="middle" x="1642.28" y="-982.2" font-family="Sans-Serif" font-size="12.00" fill="#22543d">Observability — Operational Excellence</text>
</g>
<!-- 239e7605594d4100ade6d3937c033654 -->
<g id="node1" class="node">
<title>239e7605594d4100ade6d3937c033654</title>
<image xlink:href="/Users/joycewambui/Library/Python/3.9/lib/python/site-packages/resources/onprem/client/user.png" width="100.8px" height="100.8px" preserveAspectRatio="xMinYMin meet" x="9.9476e-14" y="-667.998"/>
<text xml:space="preserve" text-anchor="middle" x="50.4" y="-548.35" font-family="Helvetica,sans-Serif" font-size="11.00" fill="#222222">Browser</text>
<text xml:space="preserve" text-anchor="middle" x="50.4" y="-536.35" font-family="Helvetica,sans-Serif" font-size="11.00" fill="#222222">creator uploads, views dashboard</text>
</g>
<!-- ba382ef6e45d4cd79d226bdafc33e3d1 -->
<g id="node2" class="node">
<title>ba382ef6e45d4cd79d226bdafc33e3d1</title>
<image xlink:href="/Users/joycewambui/Library/Python/3.9/lib/python/site-packages/resources/generic/compute/rack.png" width="100.8px" height="100.8px" preserveAspectRatio="xMinYMin meet" x="289.55" y="-667.998"/>
<text xml:space="preserve" text-anchor="middle" x="339.95" y="-545.95" font-family="Helvetica,sans-Serif" font-size="11.00" fill="#222222">Edge security + rate limiting</text>
<text xml:space="preserve" text-anchor="middle" x="339.95" y="-533.95" font-family="Helvetica,sans-Serif" font-size="11.00" fill="#222222">CSP / HSTS / X&#45;Frame&#45;Options</text>
<text xml:space="preserve" text-anchor="middle" x="339.95" y="-521.95" font-family="Helvetica,sans-Serif" font-size="11.00" fill="#222222">proxy.ts session check</text>
</g>
<!-- 239e7605594d4100ade6d3937c033654&#45;&gt;ba382ef6e45d4cd79d226bdafc33e3d1 -->
<g id="edge2" class="edge">
<title>239e7605594d4100ade6d3937c033654&#45;&gt;ba382ef6e45d4cd79d226bdafc33e3d1</title>
<path fill="none" stroke="#2b6cb0" stroke-width="1.6" d="M100.5,-617.6C149.36,-617.6 224.47,-617.6 277.31,-617.6"/>
<polygon fill="#2b6cb0" stroke="#2b6cb0" stroke-width="1.6" points="277.14,-621.1 287.14,-617.6 277.14,-614.1 277.14,-621.1"/>
<text xml:space="preserve" text-anchor="middle" x="195.18" y="-618.75" font-family="Sans-Serif" font-size="13.00" fill="#2d3436">HTTPS/TLS</text>
</g>
<!-- fe31695495384a33aa2fc5f6a72b1f61 -->
<g id="node3" class="node">
<title>fe31695495384a33aa2fc5f6a72b1f61</title>
<image xlink:href="/Users/joycewambui/Library/Python/3.9/lib/python/site-packages/resources/generic/blank/blank.png" width="100.8px" height="100.8px" preserveAspectRatio="xMinYMin meet" x="507.35" y="-667.998"/>
<text xml:space="preserve" text-anchor="middle" x="557.75" y="-545.95" font-family="Helvetica,sans-Serif" font-size="11.00" fill="#222222">Next.js 16 App Router</text>
<text xml:space="preserve" text-anchor="middle" x="557.75" y="-533.95" font-family="Helvetica,sans-Serif" font-size="11.00" fill="#222222">Pages + API routes + Server Actions</text>
<text xml:space="preserve" text-anchor="middle" x="557.75" y="-521.95" font-family="Helvetica,sans-Serif" font-size="11.00" fill="#222222">auth() + Zod + CSRF on all routes</text>
</g>
<!-- ba382ef6e45d4cd79d226bdafc33e3d1&#45;&gt;fe31695495384a33aa2fc5f6a72b1f61 -->
<g id="edge1" class="edge">
<title>ba382ef6e45d4cd79d226bdafc33e3d1&#45;&gt;fe31695495384a33aa2fc5f6a72b1f61</title>
<path fill="none" stroke="#2b6cb0" stroke-width="1.6" d="M390.19,-617.6C421.29,-617.6 461.75,-617.6 494.99,-617.6"/>
<polygon fill="#2b6cb0" stroke="#2b6cb0" stroke-width="1.6" points="494.93,-621.1 504.93,-617.6 494.93,-614.1 494.93,-621.1"/>
</g>
<!-- 441e057313694f1daa8b12f110bb64d8 -->
<g id="node4" class="node">
<title>441e057313694f1daa8b12f110bb64d8</title>
<image xlink:href="/Users/joycewambui/Library/Python/3.9/lib/python/site-packages/resources/aws/security/identity-and-access-management-iam-aws-sts.png" width="100.8px" height="100.8px" preserveAspectRatio="xMinYMin meet" x="859.625" y="-1315"/>
<text xml:space="preserve" text-anchor="middle" x="910.03" y="-1195.2" font-family="Helvetica,sans-Serif" font-size="11.00" fill="#222222">AWS STS (OIDC)</text>
<text xml:space="preserve" text-anchor="middle" x="910.03" y="-1183.2" font-family="Helvetica,sans-Serif" font-size="11.00" fill="#222222">Vercel OIDC → temporary</text>
<text xml:space="preserve" text-anchor="middle" x="910.03" y="-1168.95" font-family="Helvetica,sans-Serif" font-size="11.00" fill="#222222">scoped credentials</text>
</g>
<!-- fe31695495384a33aa2fc5f6a72b1f61&#45;&gt;441e057313694f1daa8b12f110bb64d8 -->
<g id="edge3" class="edge">
<title>fe31695495384a33aa2fc5f6a72b1f61&#45;&gt;441e057313694f1daa8b12f110bb64d8</title>
<path fill="none" stroke="#9b2c2c" stroke-width="1.6" d="M574.38,-714.48C589.8,-792.57 618.17,-903.36 666.15,-990.6 714.61,-1078.71 795.92,-1162.55 850.98,-1213.76"/>
<polygon fill="#9b2c2c" stroke="#9b2c2c" stroke-width="1.6" points="848.41,-1216.16 858.14,-1220.36 853.16,-1211.01 848.41,-1216.16"/>
<text xml:space="preserve" text-anchor="middle" x="708.9" y="-1106.26" font-family="Sans-Serif" font-size="13.00" fill="#2d3436">assume role</text>
</g>
<!-- 4125ccb8afb04b859adf22b579ec07af -->
<g id="node5" class="node">
<title>4125ccb8afb04b859adf22b579ec07af</title>
<image xlink:href="/Users/joycewambui/Library/Python/3.9/lib/python/site-packages/resources/aws/security/cognito.png" width="100.8px" height="100.8px" preserveAspectRatio="xMinYMin meet" x="859.625" y="-1063"/>
<text xml:space="preserve" text-anchor="middle" x="910.03" y="-943.35" font-family="Helvetica,sans-Serif" font-size="11.00" fill="#222222">Cognito User Pool</text>
<text xml:space="preserve" text-anchor="middle" x="910.03" y="-931.35" font-family="Helvetica,sans-Serif" font-size="11.00" fill="#222222">signup / verify / MFA&#45;ready</text>
</g>
<!-- fe31695495384a33aa2fc5f6a72b1f61&#45;&gt;4125ccb8afb04b859adf22b579ec07af -->
<g id="edge4" class="edge">
<title>fe31695495384a33aa2fc5f6a72b1f61&#45;&gt;4125ccb8afb04b859adf22b579ec07af</title>
<path fill="none" stroke="#2b6cb0" stroke-width="1.6" d="M576.34,-714.69C591.44,-774.2 618.59,-848.5 666.15,-899.6 715.2,-952.29 793.73,-982.58 848.16,-998.29"/>
<polygon fill="#2b6cb0" stroke="#2b6cb0" stroke-width="1.6" points="847.16,-1001.64 857.74,-1000.95 849.04,-994.9 847.16,-1001.64"/>
<text xml:space="preserve" text-anchor="middle" x="708.9" y="-960.31" font-family="Sans-Serif" font-size="13.00" fill="#2d3436">verify session</text>
</g>
<!-- 562e7ab0f5cc4becaa5e61aeeccfdc54 -->
<g id="node8" class="node">
<title>562e7ab0f5cc4becaa5e61aeeccfdc54</title>
<image xlink:href="/Users/joycewambui/Library/Python/3.9/lib/python/site-packages/resources/generic/blank/blank.png" width="100.8px" height="100.8px" preserveAspectRatio="xMinYMin meet" x="1263.25" y="-810.998"/>
<text xml:space="preserve" text-anchor="middle" x="1313.65" y="-691.35" font-family="Helvetica,sans-Serif" font-size="11.00" fill="#222222">AI highlight scoring</text>
<text xml:space="preserve" text-anchor="middle" x="1313.65" y="-679.35" font-family="Helvetica,sans-Serif" font-size="11.00" fill="#222222">(async, post&#45;upload)</text>
</g>
<!-- fe31695495384a33aa2fc5f6a72b1f61&#45;&gt;562e7ab0f5cc4becaa5e61aeeccfdc54 -->
<g id="edge7" class="edge">
<title>fe31695495384a33aa2fc5f6a72b1f61&#45;&gt;562e7ab0f5cc4becaa5e61aeeccfdc54</title>
<path fill="none" stroke="#dd6b20" stroke-width="1.4" stroke-dasharray="5,2" d="M607.96,-652.88C655.09,-684.43 729.51,-728.53 801.65,-747.6 959.42,-789.3 1154.19,-777.8 1251.4,-768.01"/>
<polygon fill="#dd6b20" stroke="#dd6b20" stroke-width="1.4" points="1251.64,-771.51 1261.22,-766.99 1250.92,-764.54 1251.64,-771.51"/>
<text xml:space="preserve" text-anchor="middle" x="910.03" y="-777.46" font-family="Sans-Serif" font-size="13.00" fill="#2d3436">enqueue</text>
</g>
<!-- 0f9a350ef4714563bcd55a1b992eea3c -->
<g id="node9" class="node">
<title>0f9a350ef4714563bcd55a1b992eea3c</title>
<image xlink:href="/Users/joycewambui/Library/Python/3.9/lib/python/site-packages/resources/generic/blank/blank.png" width="100.8px" height="100.8px" preserveAspectRatio="xMinYMin meet" x="859.625" y="-191.998"/>
<text xml:space="preserve" text-anchor="middle" x="910.03" y="-72.35" font-family="Helvetica,sans-Serif" font-size="11.00" fill="#222222">Paystack</text>
<text xml:space="preserve" text-anchor="middle" x="910.03" y="-60.35" font-family="Helvetica,sans-Serif" font-size="11.00" fill="#222222">(Checkout + Webhooks)</text>
</g>
<!-- fe31695495384a33aa2fc5f6a72b1f61&#45;&gt;0f9a350ef4714563bcd55a1b992eea3c -->
<g id="edge10" class="edge">
<title>fe31695495384a33aa2fc5f6a72b1f61&#45;&gt;0f9a350ef4714563bcd55a1b992eea3c</title>
<path fill="none" stroke="#dd6b20" stroke-width="1.4" stroke-dasharray="5,2" d="M608.15,-538.48C655.26,-464.66 729.53,-352.42 801.65,-260.6 817.16,-240.85 835.08,-220.24 851.77,-201.83"/>
<polygon fill="#dd6b20" stroke="#dd6b20" stroke-width="1.4" points="854.27,-204.29 858.43,-194.54 849.1,-199.57 854.27,-204.29"/>
<text xml:space="preserve" text-anchor="middle" x="708.9" y="-443.36" font-family="Sans-Serif" font-size="13.00" fill="#2d3436">webhook</text>
</g>
<!-- d256c8f6aa5541fbb83ac08bd4da7fbd -->
<g id="node11" class="node">
<title>d256c8f6aa5541fbb83ac08bd4da7fbd</title>
<image xlink:href="/Users/joycewambui/Library/Python/3.9/lib/python/site-packages/resources/generic/blank/blank.png" width="100.8px" height="100.8px" preserveAspectRatio="xMinYMin meet" x="859.625" y="-667.998"/>
<text xml:space="preserve" text-anchor="middle" x="910.03" y="-548.35" font-family="Helvetica,sans-Serif" font-size="11.00" fill="#222222">Resend</text>
<text xml:space="preserve" text-anchor="middle" x="910.03" y="-536.35" font-family="Helvetica,sans-Serif" font-size="11.00" fill="#222222">(magic link email)</text>
</g>
<!-- fe31695495384a33aa2fc5f6a72b1f61&#45;&gt;d256c8f6aa5541fbb83ac08bd4da7fbd -->
<g id="edge9" class="edge">
<title>fe31695495384a33aa2fc5f6a72b1f61&#45;&gt;d256c8f6aa5541fbb83ac08bd4da7fbd</title>
<path fill="none" stroke="#dd6b20" stroke-width="1.4" stroke-dasharray="5,2" d="M607.82,-617.6C670.7,-617.6 779.69,-617.6 847.89,-617.6"/>
<polygon fill="#dd6b20" stroke="#dd6b20" stroke-width="1.4" points="847.6,-621.1 857.6,-617.6 847.6,-614.1 847.6,-621.1"/>
<text xml:space="preserve" text-anchor="middle" x="708.9" y="-618.75" font-family="Sans-Serif" font-size="13.00" fill="#2d3436">magic link</text>
</g>
<!-- 2aff93a6f5644013b3b3bb6ff1adf235 -->
<g id="node12" class="node">
<title>2aff93a6f5644013b3b3bb6ff1adf235</title>
<image xlink:href="/Users/joycewambui/Library/Python/3.9/lib/python/site-packages/resources/aws/management/cloudwatch.png" width="100.8px" height="100.8px" preserveAspectRatio="xMinYMin meet" x="1591.38" y="-935.998"/>
<text xml:space="preserve" text-anchor="middle" x="1641.78" y="-816.35" font-family="Helvetica,sans-Serif" font-size="11.00" fill="#222222">CloudWatch</text>
<text xml:space="preserve" text-anchor="middle" x="1641.78" y="-804.35" font-family="Helvetica,sans-Serif" font-size="11.00" fill="#222222">logs · metrics · alarms</text>
</g>
<!-- fe31695495384a33aa2fc5f6a72b1f61&#45;&gt;2aff93a6f5644013b3b3bb6ff1adf235 -->
<g id="edge12" class="edge">
<title>fe31695495384a33aa2fc5f6a72b1f61&#45;&gt;2aff93a6f5644013b3b3bb6ff1adf235</title>
<path fill="none" stroke="#888888" stroke-dasharray="1,5" d="M573.31,-520.5C588.59,-435.59 617.32,-310.57 666.15,-210.6 709.78,-121.26 712.56,-76.74 801.65,-32.6 888.36,10.37 933.14,11.28 1019.4,-32.6 1338.58,-194.98 1532.59,-606.64 1606.51,-792.28"/>
<polygon fill="#888888" stroke="#888888" points="1603.19,-793.41 1610.12,-801.42 1609.7,-790.84 1603.19,-793.41"/>
</g>
<!-- f14932e5c6df4e38883c6064b9f5767b -->
<g id="node6" class="node">
<title>f14932e5c6df4e38883c6064b9f5767b</title>
<image xlink:href="/Users/joycewambui/Library/Python/3.9/lib/python/site-packages/resources/aws/database/dynamodb.png" width="100.8px" height="100.8px" preserveAspectRatio="xMinYMin meet" x="1263.25" y="-1063"/>
<text xml:space="preserve" text-anchor="middle" x="1313.65" y="-940.95" font-family="Helvetica,sans-Serif" font-size="11.00" fill="#222222">truss&#45;main</text>
<text xml:space="preserve" text-anchor="middle" x="1313.65" y="-928.95" font-family="Helvetica,sans-Serif" font-size="11.00" fill="#222222">(single table,</text>
<text xml:space="preserve" text-anchor="middle" x="1313.65" y="-916.95" font-family="Helvetica,sans-Serif" font-size="11.00" fill="#222222">inc. magic&#45;link tokens)</text>
</g>
<!-- 441e057313694f1daa8b12f110bb64d8&#45;&gt;f14932e5c6df4e38883c6064b9f5767b -->
<g id="edge5" class="edge">
<title>441e057313694f1daa8b12f110bb64d8&#45;&gt;f14932e5c6df4e38883c6064b9f5767b</title>
<path fill="none" stroke="#9b2c2c" stroke-width="1.6" d="M960.27,-1233.7C1034.14,-1187.35 1173.43,-1099.95 1252.97,-1050.04"/>
<polygon fill="#9b2c2c" stroke="#9b2c2c" stroke-width="1.6" points="1254.65,-1053.12 1261.26,-1044.84 1250.93,-1047.19 1254.65,-1053.12"/>
<text xml:space="preserve" text-anchor="middle" x="1110.28" y="-1162.32" font-family="Sans-Serif" font-size="13.00" fill="#2d3436">scoped creds</text>
</g>
<!-- 4aa5f2464aab4980b1e878e47eb5b216 -->
<g id="node7" class="node">
<title>4aa5f2464aab4980b1e878e47eb5b216</title>
<image xlink:href="/Users/joycewambui/Library/Python/3.9/lib/python/site-packages/resources/aws/storage/simple-storage-service-s3.png" width="100.8px" height="100.8px" preserveAspectRatio="xMinYMin meet" x="1263.25" y="-1315"/>
<text xml:space="preserve" text-anchor="middle" x="1313.65" y="-1195.35" font-family="Helvetica,sans-Serif" font-size="11.00" fill="#222222">truss&#45;uploads</text>
<text xml:space="preserve" text-anchor="middle" x="1313.65" y="-1183.35" font-family="Helvetica,sans-Serif" font-size="11.00" fill="#222222">(presigned, scoped bucket)</text>
</g>
<!-- 441e057313694f1daa8b12f110bb64d8&#45;&gt;4aa5f2464aab4980b1e878e47eb5b216 -->
<g id="edge6" class="edge">
<title>441e057313694f1daa8b12f110bb64d8&#45;&gt;4aa5f2464aab4980b1e878e47eb5b216</title>
<path fill="none" stroke="#9b2c2c" stroke-width="1.6" d="M960.27,-1264.6C1033.54,-1264.6 1171.16,-1264.6 1251.01,-1264.6"/>
<polygon fill="#9b2c2c" stroke="#9b2c2c" stroke-width="1.6" points="1250.89,-1268.1 1260.89,-1264.6 1250.89,-1261.1 1250.89,-1268.1"/>
<text xml:space="preserve" text-anchor="middle" x="1110.28" y="-1265.75" font-family="Sans-Serif" font-size="13.00" fill="#2d3436">scoped creds</text>
</g>
<!-- f14932e5c6df4e38883c6064b9f5767b&#45;&gt;2aff93a6f5644013b3b3bb6ff1adf235 -->
<g id="edge13" class="edge">
<title>f14932e5c6df4e38883c6064b9f5767b&#45;&gt;2aff93a6f5644013b3b3bb6ff1adf235</title>
<path fill="none" stroke="#888888" stroke-dasharray="1,5" d="M1363.83,-993.45C1421.94,-970.82 1518.61,-933.17 1581,-908.88"/>
<polygon fill="#888888" stroke="#888888" points="1582.01,-912.24 1590.05,-905.35 1579.47,-905.72 1582.01,-912.24"/>
</g>
<!-- 4aa5f2464aab4980b1e878e47eb5b216&#45;&gt;2aff93a6f5644013b3b3bb6ff1adf235 -->
<g id="edge14" class="edge">
<title>4aa5f2464aab4980b1e878e47eb5b216&#45;&gt;2aff93a6f5644013b3b3bb6ff1adf235</title>
<path fill="none" stroke="#888888" stroke-dasharray="1,5" d="M1363.89,-1214.07C1383.86,-1193.18 1406.94,-1168.52 1427.15,-1145.6 1482.11,-1083.25 1541.96,-1009.9 1584.29,-957.03"/>
<polygon fill="#888888" stroke="#888888" points="1587,-959.25 1590.52,-949.25 1581.54,-954.88 1587,-959.25"/>
</g>
<!-- ff0d4fcf34db4ebca9ccf43af1838240 -->
<g id="node10" class="node">
<title>ff0d4fcf34db4ebca9ccf43af1838240</title>
<image xlink:href="/Users/joycewambui/Library/Python/3.9/lib/python/site-packages/resources/generic/blank/blank.png" width="100.8px" height="100.8px" preserveAspectRatio="xMinYMin meet" x="859.625" y="-429.998"/>
<text xml:space="preserve" text-anchor="middle" x="910.03" y="-310.35" font-family="Helvetica,sans-Serif" font-size="11.00" fill="#222222">Google AI</text>
<text xml:space="preserve" text-anchor="middle" x="910.03" y="-298.35" font-family="Helvetica,sans-Serif" font-size="11.00" fill="#222222">(gemini&#45;3.5&#45;flash)</text>
</g>
<!-- 562e7ab0f5cc4becaa5e61aeeccfdc54&#45;&gt;ff0d4fcf34db4ebca9ccf43af1838240 -->
<g id="edge8" class="edge">
<title>562e7ab0f5cc4becaa5e61aeeccfdc54&#45;&gt;ff0d4fcf34db4ebca9ccf43af1838240</title>
<path fill="none" stroke="#dd6b20" stroke-width="1.4" stroke-dasharray="5,2" d="M1263.31,-713.8C1188.79,-643.1 1047.82,-509.37 968.67,-434.28"/>
<polygon fill="#dd6b20" stroke="#dd6b20" stroke-width="1.4" points="971.47,-432.12 961.81,-427.77 966.66,-437.2 971.47,-432.12"/>
<text xml:space="preserve" text-anchor="middle" x="1110.28" y="-605.37" font-family="Sans-Serif" font-size="13.00" fill="#2d3436">score request</text>
</g>
<!-- 562e7ab0f5cc4becaa5e61aeeccfdc54&#45;&gt;2aff93a6f5644013b3b3bb6ff1adf235 -->
<g id="edge15" class="edge">
<title>562e7ab0f5cc4becaa5e61aeeccfdc54&#45;&gt;2aff93a6f5644013b3b3bb6ff1adf235</title>
<path fill="none" stroke="#888888" stroke-dasharray="1,5" d="M1363.83,-779.45C1421.94,-801.72 1518.61,-838.77 1581,-862.69"/>
<polygon fill="#888888" stroke="#888888" points="1579.46,-865.85 1590.05,-866.16 1581.97,-859.31 1579.46,-865.85"/>
</g>
<!-- 0f9a350ef4714563bcd55a1b992eea3c&#45;&gt;fe31695495384a33aa2fc5f6a72b1f61 -->
<g id="edge11" class="edge">
<title>0f9a350ef4714563bcd55a1b992eea3c&#45;&gt;fe31695495384a33aa2fc5f6a72b1f61</title>
<path fill="none" stroke="#dd6b20" stroke-width="1.4" stroke-dasharray="5,2" d="M860.11,-162.73C805.44,-188.7 717.84,-237.76 666.15,-305.1 620.43,-364.66 593.38,-445.01 577.87,-509.32"/>
<polygon fill="#dd6b20" stroke="#dd6b20" stroke-width="1.4" points="574.56,-508.12 575.68,-518.66 581.37,-509.72 574.56,-508.12"/>
<text xml:space="preserve" text-anchor="middle" x="708.9" y="-306.25" font-family="Sans-Serif" font-size="13.00" fill="#2d3436">event callback</text>
</g>
</g>
</svg>
